HIERARCHY
ROOT Hips
{
	OFFSET 0.00000 0.00000 0.00000
	CHANNELS 6 Xposition Yposition Zposition Zrotation Yrotation Xrotation 
	JOINT LHipJoint
	{
		OFFSET 0 0 0
		CHANNELS 3 Zrotation Yrotation Xrotation
		JOINT LeftUpLeg
		{
			OFFSET 1.62964 -1.40469 0.78906
			CHANNELS 3 Zrotation Yrotation Xrotation
			JOINT LeftLeg
			{
				OFFSET 2.29640 -6.30932 0.00000
				CHANNELS 3 Zrotation Yrotation Xrotation
				JOINT LeftFoot
				{
					OFFSET 2.29451 -6.30412 0.00000
					CHANNELS 3 Zrotation Yrotation Xrotation
					JOINT LeftToeBase
					{
						OFFSET 0.03611 -0.09921 1.56387
						CHANNELS 3 Zrotation Yrotation Xrotation
						End Site
						{
							OFFSET 0.00000 -0.00000 0.80291
						}
					}
				}
			}
		}
	}
	JOINT RHipJoint
	{
		OFFSET 0 0 0
		CHANNELS 3 Zrotation Yrotation Xrotation
		JOINT RightUpLeg
		{
			OFFSET -1.73712 -1.40469 0.78906
			CHANNELS 3 Zrotation Yrotation Xrotation
			JOINT RightLeg
			{
				OFFSET -2.28137 -6.26801 0.00000
				CHANNELS 3 Zrotation Yrotation Xrotation
				JOINT RightFoot
				{
					OFFSET -2.28681 -6.28298 0.00000
					CHANNELS 3 Zrotation Yrotation Xrotation
					JOINT RightToeBase
					{
						OFFSET -0.15927 -0.43759 1.61103
						CHANNELS 3 Zrotation Yrotation Xrotation
						End Site
						{
							OFFSET -0.00000 -0.00000 0.84630
						}
					}
				}
			}
		}
	}
	JOINT LowerBack
	{
		OFFSET 0 0 0
		CHANNELS 3 Zrotation Yrotation Xrotation
		JOINT Spine
		{
			OFFSET -0.04227 2.04338 -0.00225
			CHANNELS 3 Zrotation Yrotation Xrotation
			JOINT Spine1
			{
				OFFSET -0.02148 2.04482 -0.04273
				CHANNELS 3 Zrotation Yrotation Xrotation
				JOINT Neck
				{
					OFFSET 0 0 0
					CHANNELS 3 Zrotation Yrotation Xrotation
					JOINT Neck1
					{
						OFFSET 0.09180 1.44629 0.19359
						CHANNELS 3 Zrotation Yrotation Xrotation
						JOINT Head
						{
							OFFSET 0.00887 1.40645 0.14750
							CHANNELS 3 Zrotation Yrotation Xrotation
							End Site
							{
								OFFSET -0.00669 1.50671 0.03707
							}
						}
					}
				}
				JOINT LeftShoulder
				{
					OFFSET 0 0 0
					CHANNELS 3 Zrotation Yrotation Xrotation
					JOINT LeftArm
					{
						OFFSET 2.17674 1.86763 -0.06520
						CHANNELS 3 Zrotation Yrotation Xrotation
						JOINT LeftForeArm
						{
							OFFSET 4.65776 -0.00000 0.00000
							CHANNELS 3 Zrotation Yrotation Xrotation
							JOINT LeftHand
							{
								OFFSET 3.55539 -0.00000 0.00000
								CHANNELS 3 Zrotation Yrotation Xrotation
								JOINT LeftFingerBase
								{
									OFFSET 0 0 0
									CHANNELS 3 Zrotation Yrotation Xrotation
									JOINT LeftHandIndex1
									{
										OFFSET 0.70726 -0.00000 0.00000
										CHANNELS 3 Zrotation Yrotation Xrotation
										End Site
										{
											OFFSET 0.57022 -0.00000 0.00000
										}
									}
								}
								JOINT LThumb
								{
									OFFSET 0 0 0
									CHANNELS 3 Zrotation Yrotation Xrotation
									End Site
									{
										OFFSET 0.57892 -0.00000 0.57892
									}
								}
							}
						}
					}
				}
				JOINT RightShoulder
				{
					OFFSET 0 0 0
					CHANNELS 3 Zrotation Yrotation Xrotation
					JOINT RightArm
					{
						OFFSET -2.80694 1.55459 -0.32496
						CHANNELS 3 Zrotation Yrotation Xrotation
						JOINT RightForeArm
						{
							OFFSET -4.71925 -0.00000 -0.00000
							CHANNELS 3 Zrotation Yrotation Xrotation
							JOINT RightHand
							{
								OFFSET -3.56990 -0.00000 0.00000
								CHANNELS 3 Zrotation Yrotation Xrotation
								JOINT RightFingerBase
								{
									OFFSET 0 0 0
									CHANNELS 3 Zrotation Yrotation Xrotation
									JOINT RightHandIndex1
									{
										OFFSET -0.50776 -0.00000 0.00000
										CHANNELS 3 Zrotation Yrotation Xrotation
										End Site
										{
											OFFSET -0.40937 -0.00000 0.00000
										}
									}
								}
								JOINT RThumb
								{
									OFFSET 0 0 0
									CHANNELS 3 Zrotation Yrotation Xrotation
									End Site
									{
										OFFSET -0.41562 -0.00000 0.41562
									}
								}
							}
						}
					}
				}
			}
		}
	}
}
MOTION
Frames: 13
Frame Time: .0083333
3.3217 17.1778 10.1104 170.0750 -6.2153 -139.5940 0.0000 0.0000 0.0000 -11.9378 -19.2699 -26.1949 10.3958 17.6265 60.8031 0.0436 -0.8705 -3.7329 1.4664 -7.6527 -21.6642 0.0000 0.0000 0.0000 -3.1021 18.0223 -50.3860 -1.2313 -7.0371 19.8255 -0.7759 -2.7508 -17.8550 -0.8894 6.0112 -16.8169 -1.2575 -5.7242 -19.2072 0.8585 -7.5311 0.1911 -0.5130 -3.6893 11.2487 -0.5401 -0.8539 -1.1093 0.3548 -0.4015 15.1869 0.2055 0.0860 4.7351 -0.0000 -0.0000 0.0000 -71.0580 -5.5557 34.2001 34.5582 -44.4941 -14.5028 -0.0000 0.0000 -5.6480 22.7457 -13.3106 -5.5133 -7.1250 0.0000 -0.0000 -3.1632 15.6064 2.1990 -0.0000 -0.0000 0.0000 88.6717 -10.6144 16.8002 -23.2669 34.3794 -7.2885 0.0000 -0.0000 -7.3996 -5.6557 -52.6582 4.5018 7.1250 -0.0000 -0.0000 68.6585 -73.2546 -51.6279
3.3384 17.1779 10.0865 170.2260 -6.1141 -139.8660 0.0000 0.0000 0.0000 -12.0705 -19.3544 -27.3480 10.9273 17.8993 62.5453 0.0573 -1.0157 -4.2787 1.2223 -7.0125 -19.7523 0.0000 0.0000 0.0000 -2.6552 18.1230 -49.8453 -1.1865 -6.9125 19.4563 -0.7677 -2.6389 -17.7104 -0.9031 6.0561 -16.9474 -1.2876 -5.6564 -19.0575 0.8690 -7.4323 0.2609 -0.4453 -3.6435 11.2465 -0.4707 -0.8426 -0.9367 0.3144 -0.3748 14.7640 0.2006 0.1034 5.1017 0.0000 -0.0000 0.0000 -71.2241 -5.3176 34.7373 34.6426 -44.5552 -14.5620 -0.0000 0.0000 -5.4812 22.6543 -12.9788 -5.3551 -7.1250 0.0000 -0.0000 -3.2095 15.9718 2.2060 0.0000 -0.0000 0.0000 88.5601 -10.5223 17.0178 -23.4811 34.6107 -7.4097 0.0000 -0.0000 -7.4960 -4.7788 -52.6532 3.8023 7.1250 -0.0000 -0.0000 69.1031 -72.9344 -51.6650
3.3552 17.1792 10.0642 170.4010 -5.9494 -140.1510 0.0000 0.0000 0.0000 -12.2364 -19.4095 -28.5377 11.4433 18.1453 64.2131 0.0725 -1.2222 -4.8064 1.4721 -7.6671 -21.7073 0.0000 0.0000 0.0000 -2.2527 18.3123 -49.4120 -1.1665 -6.8561 19.2899 -0.7649 -2.4976 -17.6076 -0.9138 6.0910 -17.0488 -1.2667 -5.5309 -18.9960 0.8024 -7.2598 0.3673 -0.4795 -3.5560 11.3163 -0.2574 -0.9629 -0.9646 0.1972 -0.5130 15.3871 0.1065 0.0499 4.7712 0.0000 -0.0000 0.0000 -71.2456 -5.0926 35.2736 34.5862 -44.5144 -14.5225 -0.0000 0.0000 -5.2588 22.8559 -13.5415 -5.6366 -7.1250 0.0000 -0.0000 -3.0996 15.3470 2.1719 0.0000 -0.0000 0.0000 88.6369 -10.3400 16.9525 -23.6780 34.8219 -7.5219 0.0000 -0.0000 -7.3008 -2.7378 -53.1852 2.1924 7.1250 -0.0000 -0.0000 71.7866 -72.3624 -53.4621
3.3706 17.1825 10.0458 170.5670 -5.7353 -140.4850 0.0000 0.0000 0.0000 -12.4748 -19.4908 -29.7274 11.9611 18.3742 65.8655 0.0832 -1.1313 -5.1673 1.9229 -8.7036 -24.8724 0.0000 0.0000 0.0000 -1.8481 18.4680 -48.9908 -1.1529 -6.8174 19.1756 -0.7622 -2.2769 -17.4679 -0.9091 6.0759 -17.0048 -1.2656 -5.3936 -18.9354 0.7096 -7.0631 0.5147 -0.5268 -3.4560 11.4319 -0.1950 -1.1303 -1.0930 0.2089 -0.7266 15.6446 0.0908 -0.0435 4.8723 -0.0000 0.0000 0.0000 -71.2654 -4.9460 35.8298 34.4842 -44.4403 -14.4510 -0.0000 0.0000 -5.0110 22.9442 -13.4130 -5.6084 -7.1250 0.0000 -0.0000 -3.0322 15.4752 2.1162 -0.0000 0.0000 0.0000 88.7618 -10.1003 16.9300 -23.8426 34.9974 -7.6161 0.0000 -0.0000 -7.4790 -3.3640 -53.6316 2.7099 7.1250 -0.0000 -0.0000 72.8520 -72.7108 -54.8632
3.3843 17.1845 10.0296 170.6940 -5.5179 -140.7770 0.0000 0.0000 0.0000 -12.7511 -19.5863 -30.9273 12.4325 18.5676 67.3534 0.0943 -0.9684 -5.5400 2.1003 -9.0720 -26.0209 0.0000 0.0000 0.0000 -1.5280 18.5975 -48.6456 -1.1545 -6.8220 19.1892 -0.7819 -1.9397 -17.5130 -0.8384 5.8408 -16.3231 -1.3662 -5.3205 -18.8375 0.6993 -6.9390 0.6169 -0.4432 -3.4005 11.5008 -0.2865 -1.1687 -1.2150 0.2836 -0.7648 15.8930 0.1277 -0.0559 4.9703 -0.0000 -0.0000 0.0000 -71.5173 -4.7310 36.1315 34.2431 -44.2640 -14.2825 -0.0000 0.0000 -4.5951 22.5488 -13.2643 -5.4420 -7.1250 0.0000 -0.0000 -3.2962 15.6771 2.2868 -0.0000 -0.0000 0.0000 88.6848 -9.9558 17.1341 -24.0475 35.2145 -7.7339 0.0000 -0.0000 -8.0608 -4.9897 -53.1119 3.9944 7.1250 -0.0000 -0.0000 70.4390 -73.1514 -53.1387
3.3994 17.1853 10.0151 170.8500 -5.3616 -141.0300 0.0000 0.0000 0.0000 -12.9008 -19.7071 -32.1783 12.8635 18.7323 68.7010 0.1032 -1.0945 -5.7807 1.8405 -8.5257 -24.3225 0.0000 0.0000 0.0000 -1.2441 18.8259 -48.3375 -1.1688 -6.8626 19.3090 -0.8226 -1.5861 -17.7765 -0.7118 5.3920 -15.0301 -1.5034 -5.2764 -18.7276 0.7737 -6.8556 0.6682 -0.2548 -3.3707 11.5214 -0.4636 -1.1832 -1.3092 0.3109 -0.7494 16.1956 0.1672 -0.0468 5.0808 0.0000 -0.0000 0.0000 -71.9063 -4.4681 36.4040 33.8550 -43.9770 -14.0123 -0.0000 0.0000 -4.1143 22.3644 -13.3639 -5.4324 -7.1250 0.0000 -0.0000 -3.4280 15.5901 2.3849 0.0000 -0.0000 0.0000 88.4736 -9.8471 17.3243 -24.1849 35.3591 -7.8133 0.0000 -0.0000 -8.4960 -5.2241 -52.3798 4.1422 7.1250 -0.0000 -0.0000 68.0136 -73.0070 -50.7595
3.4163 17.1875 10.0020 170.9680 -5.2465 -141.3520 0.0000 0.0000 0.0000 -13.0658 -19.8646 -33.3555 13.2515 18.8711 69.9048 0.1098 -1.4383 -5.9217 1.6239 -8.0344 -22.8187 0.0000 0.0000 0.0000 -0.9800 19.0906 -47.9614 -1.1825 -6.9014 19.4235 -0.8591 -1.3918 -18.0661 -0.6350 5.0986 -14.1899 -1.6690 -5.2280 -18.6028 0.8050 -6.7538 0.7900 -0.0949 -3.3309 11.6101 -0.4857 -1.2296 -1.3163 0.2298 -0.7856 16.3159 0.1444 -0.0657 5.1192 -0.0000 0.0000 0.0000 -72.1790 -4.2974 36.7520 33.4667 -43.6857 -13.7433 -0.0000 0.0000 -3.7495 22.4738 -13.2190 -5.4040 -7.1250 0.0000 -0.0000 -3.3456 15.7334 2.3171 -0.0000 0.0000 0.0000 88.3842 -9.6099 17.3835 -24.2893 35.4687 -7.8738 0.0000 -0.0000 -8.5201 -5.6107 -52.3158 4.4455 7.1250 -0.0000 -0.0000 67.6023 -73.1261 -50.5241
3.4324 17.1891 9.9861 171.0760 -5.1022 -141.6710 0.0000 0.0000 0.0000 -13.3003 -19.9918 -34.5169 13.5755 18.9802 70.9036 0.1199 -1.6797 -6.1704 1.7841 -8.4010 -23.9389 0.0000 0.0000 0.0000 -0.7080 19.3275 -47.6516 -1.2057 -6.9662 19.6151 -0.8940 -1.2673 -18.3639 -0.6677 5.2256 -14.5531 -1.8103 -5.1953 -18.1996 0.8346 -6.6900 0.6883 0.0759 -3.3170 11.2839 -0.5629 -1.2007 -1.0196 0.2231 -0.7168 16.3411 0.1599 -0.0279 5.0770 -0.0000 0.0000 0.0000 -72.5127 -3.6505 36.9961 33.1923 -43.4773 -13.5542 -0.0000 0.0000 -3.3170 22.4071 -12.7990 -5.2190 -7.1250 0.0000 -0.0000 -3.3716 16.1899 2.3019 -0.0000 0.0000 0.0000 88.2593 -9.7436 17.5398 -24.4254 35.6109 -7.9529 0.0000 -0.0000 -8.5379 -6.2412 -52.4195 4.9534 7.1250 -0.0000 -0.0000 67.5885 -73.3909 -50.8131
3.4489 17.1888 9.9706 171.2870 -5.0218 -141.8670 0.0000 0.0000 0.0000 -13.3575 -20.1108 -35.8349 13.8562 19.0698 71.7648 0.1315 -1.7636 -6.4617 2.0451 -8.9594 -25.6685 0.0000 0.0000 0.0000 -0.2995 19.5092 -47.4969 -1.2298 -7.0330 19.8131 -0.9192 -1.1126 -18.5491 -0.7056 5.3689 -14.9638 -1.8798 -5.2176 -18.1980 0.9623 -6.7191 0.6311 0.2481 -3.3401 11.2446 -0.8018 -1.0622 -0.4899 0.2170 -0.5034 16.1256 0.2084 0.0675 4.9215 0.0000 -0.0000 0.0000 -72.9698 -3.0175 37.0164 32.8876 -43.2434 -13.3450 -0.0000 0.0000 -2.8018 22.5035 -12.7065 -5.2067 -7.1250 0.0000 -0.0000 -3.3006 16.2791 2.2468 0.0000 -0.0000 0.0000 87.9673 -9.7469 17.8141 -24.4675 35.6547 -7.9774 0.0000 -0.0000 -8.7712 -6.5019 -52.6169 5.1745 7.1250 -0.0000 -0.0000 68.0859 -73.5508 -51.4450
3.4669 17.1889 9.9594 171.4430 -5.0402 -142.0390 0.0000 0.0000 0.0000 -13.3735 -20.3889 -37.1929 14.1242 19.1513 72.5834 0.1420 -1.9128 -6.7097 1.9868 -8.8386 -25.2917 0.0000 0.0000 0.0000 0.0798 19.6081 -47.3279 -1.2445 -7.0735 19.9334 -0.9313 -0.9997 -18.6215 -0.6804 5.2741 -14.6921 -1.8517 -5.0849 -18.1952 0.9001 -6.5365 0.7944 0.2085 -3.2464 11.4098 -0.4810 -1.0871 -0.7019 0.0410 -0.5426 16.1137 0.0982 0.0517 4.9516 0.0000 -0.0000 0.0000 -73.0145 -3.1285 37.3735 32.5358 -42.9702 -13.1046 -0.0000 0.0000 -2.8525 22.4083 -12.8684 -5.2470 -7.1250 0.0000 -0.0000 -3.3740 16.1154 2.3089 0.0000 -0.0000 0.0000 88.2121 -9.3454 17.3821 -24.5599 35.7508 -8.0314 0.0000 -0.0000 -8.7995 -5.6779 -53.5124 4.5702 7.1250 -0.0000 -0.0000 71.4069 -73.5148 -54.4526
3.4806 17.1880 9.9474 171.5550 -5.0111 -142.2500 0.0000 0.0000 0.0000 -13.5001 -20.7124 -38.4516 14.3455 19.2155 73.2570 0.1466 -2.0293 -6.8125 1.7945 -8.4243 -24.0104 0.0000 0.0000 0.0000 0.4357 19.6328 -47.1156 -1.2574 -7.1087 20.0377 -0.9441 -0.7818 -18.6595 -0.6629 5.2070 -14.5000 -1.8764 -5.0248 -18.0635 0.8952 -6.4519 0.7971 0.2523 -3.2090 11.3368 -0.4807 -1.0878 -0.6334 -0.0096 -0.5135 16.2514 0.0846 0.0712 4.9824 0.0000 0.0000 0.0000 -73.2989 -2.8537 37.5326 31.7946 -42.3828 -12.6022 -0.0000 0.0000 -2.0291 22.8557 -13.8930 -5.7791 -7.1250 0.0000 -0.0000 -3.1189 14.9701 2.2107 0.0000 0.0000 0.0000 88.2431 -9.3571 17.2043 -24.7873 35.9858 -8.1646 0.0000 -0.0000 -8.8138 -4.6462 -54.1995 3.7712 7.1250 -0.0000 -0.0000 74.1009 -73.3144 -56.7428
3.4898 17.1867 9.9287 171.7850 -4.9777 -142.5220 0.0000 0.0000 0.0000 -13.5649 -20.8988 -39.4977 14.4412 19.2424 73.5474 0.1488 -2.1172 -6.8602 1.7734 -8.3772 -23.8659 0.0000 0.0000 0.0000 0.9049 19.7688 -46.7391 -1.2590 -7.1129 20.0503 -0.9625 -0.5443 -18.7465 -0.6524 5.1666 -14.3843 -1.8050 -4.9866 -17.9520 0.9714 -6.4262 0.7497 0.3150 -3.1971 11.2202 -0.6686 -1.0831 -0.4839 0.0679 -0.4683 16.4886 0.1436 0.1009 5.0315 0.0000 -0.0000 0.0000 -73.7421 -2.2814 37.4490 31.3488 -42.0218 -12.3027 -0.0000 0.0000 -1.5803 22.3728 -13.6580 -5.5513 -7.1250 0.0000 -0.0000 -3.4369 15.2747 2.4144 0.0000 -0.0000 0.0000 87.9925 -9.4260 17.4947 -24.8669 36.0677 -8.2114 0.0000 -0.0000 -9.0566 -5.4448 -53.5924 4.3867 7.1250 -0.0000 -0.0000 71.7742 -73.4515 -54.7209
3.5002 17.1862 9.9067 172.0210 -4.9861 -142.8930 0.0000 0.0000 0.0000 -13.6356 -21.0951 -40.3942 14.4563 19.2466 73.5934 0.1561 -2.1731 -7.0264 2.1475 -9.1668 -26.3186 0.0000 0.0000 0.0000 1.3645 19.9997 -46.1892 -1.2582 -7.1108 20.0440 -0.9899 -0.4097 -18.9595 -0.6315 5.0847 -14.1503 -1.7213 -4.9199 -17.8475 0.9905 -6.3538 0.8582 0.3133 -3.1567 11.2731 -0.5804 -1.1760 -0.7386 0.0996 -0.5738 16.8844 0.1350 0.0662 5.1971 0.0000 0.0000 0.0000 -74.0351 -2.0105 37.4070 30.8849 -41.6399 -11.9933 -0.0000 0.0000 -1.3533 22.0360 -13.1295 -5.2531 -7.1250 0.0000 -0.0000 -3.6428 15.8747 2.5126 0.0000 0.0000 0.0000 87.8584 -9.2300 17.8502 -24.8744 36.0753 -8.2158 0.0000 -0.0000 -9.4706 -6.7137 -52.7221 5.3511 7.1250 -0.0000 -0.0000 68.3195 -73.6620 -51.7835
